:SAMPLES-PER-SECOND 30
:FULLY-SPECIFIED
:DEGREES
1
root  72.4671 40.4405 -3.19844 -147.191 -86.5957 144.6
RightUpLeg  2.70431 -9.6325 -8.14299
RightLeg  5.50897 -3.05981 3.21443
RightFoot  -3.81514 -0.0525042 0.402024
RightToes  0.000482159 0.542163 -0.142577
Spine  3.6452 0.039898 0.808005
Spine1  5.95863 0.769947 -2.54486
HEad  -7.00022 -1.87455 1.25138
LeftShoulder1  2.03907 -5.02382 -17.2002
LeftArm  -22.0281 12.9972 -6.29837
LeftForeArm  10.677 -1.91057 0.542698
LeftHand  -0.25398 0.0180481 5.50724
RightShoulder  0.712027 -0.0198979 13.4842
RightArm  -31.2913 -10.0753 7.26492
RightForeArm  5.18369 6.0696 -0.1314
RightHand  -3.6291 14.2351 -21.7006
LeftUpLeg  2.75567 5.97562 4.28755
LeftLeg  0.260083 17.759 -4.50274
LeftFoot  0.482131 0.218884 -2.04365
LeftToes  1.06248e-005 4.65856e-005 -8.18499e-006
2
root  72.4643 40.4405 -3.19844 -147.167 -86.5949 144.572
RightUpLeg  2.73068 -9.62746 -8.15093
RightLeg  5.48454 -3.0541 3.21371
RightFoot  -3.84715 -0.061138 0.53604
RightToes  0.000482159 0.542163 -0.142577
Spine  3.69573 0.0230705 0.865686
Spine1  5.93 0.776806 -2.64835
HEad  -7.07513 -1.81974 1.22641
LeftShoulder1  2.04025 -5.05278 -17.1278
LeftArm  -22.0508 13.1042 -6.31805
LeftForeArm  10.6044 -1.9997 0.545105
LeftHand  -0.25398 0.0180481 5.50724
RightShoulder  0.713893 -0.025322 13.5781
RightArm  -31.2562 -10.0829 7.2253
RightForeArm  4.61497 6.07221 -0.0867029
RightHand  -3.62021 14.0573 -21.838
LeftUpLeg  2.75566 5.97529 4.28753
LeftLeg  0.265121 17.763 -4.4984
LeftFoot  0.473505 0.217746 -2.02595
LeftToes  1.06248e-005 4.65856e-005 -8.18499e-006
3
root  72.4557 40.4405 -3.19844 -147.523 -86.5676 144.943
RightUpLeg  2.74122 -9.61072 -8.14631
RightLeg  5.44738 -3.03298 3.21105
RightFoot  -3.86233 -0.0706867 0.684247
RightToes  0.000482159 0.542163 -0.142577
Spine  3.63346 -0.0055253 0.99461
Spine1  6.05724 0.800544 -2.85918
HEad  -7.0676 -1.69184 1.4125
LeftShoulder1  2.01444 -5.00052 -16.9574
LeftArm  -22.1211 13.1664 -6.42349
LeftForeArm  10.5152 -2.08446 0.554506
LeftHand  -0.25398 0.0180481 5.50724
RightShoulder  0.725343 0.00498067 13.7421
RightArm  -31.2756 -10.053 7.16347
RightForeArm  4.07191 6.0049 -0.0758106
RightHand  -3.61625 13.8833 -22.0019
LeftUpLeg  2.75578 5.9941 4.28868
LeftLeg  0.279128 17.8171 -4.50542
LeftFoot  0.470774 0.214445 -1.97462
LeftToes  1.06248e-005 4.65856e-005 -8.18499e-006
4
root  72.4427 40.4405 -3.19895 -147.973 -86.5176 145.44
RightUpLeg  2.70364 -9.59958 -8.13141
RightLeg  5.43349 -3.0146 3.20873
RightFoot  -3.85021 -0.0676079 0.636461
RightToes  0.000482159 0.542163 -0.142577
Spine  3.49579 -0.00670538 1.06367
Spine1  6.23354 0.831086 -2.9731
HEad  -6.89193 -1.56369 1.73454
LeftShoulder1  2.00971 -4.99675 -16.9084
LeftArm  -22.1212 13.206 -6.39741
LeftForeArm  10.4226 -2.11252 0.550507
LeftHand  -0.25398 0.0180481 5.50724
RightShoulder  0.742188 0.069817 13.8488
RightArm  -31.3499 -10.0596 7.09487
RightForeArm  4.14298 5.89543 -0.133007
RightHand  -3.61774 13.906 -21.9863
LeftUpLeg  2.75667 6.00998 4.28886
LeftLeg  0.257362 17.8567 -4.53142
LeftFoot  0.464991 0.215717 -1.9944
LeftToes  1.06248e-005 4.65856e-005 -8.18499e-006
5
root  72.4276 40.4405 -3.20135 -148.134 -86.4842 145.642
RightUpLeg  2.66362 -9.60085 -8.124
RightLeg  5.45268 -2.99045 3.20568
RightFoot  -3.8637 -0.0590503 0.503634
RightToes  0.000482159 0.542163 -0.142577
Spine  3.51327 0.0342418 1.04627
Spine1  6.16215 0.864767 -2.93984
HEad  -6.67948 -1.58527 1.82018
LeftShoulder1  2.02513 -5.04532 -16.9593
LeftArm  -22.0616 13.2153 -6.2932
LeftForeArm  10.469 -2.11392 0.534433
LeftHand  -0.25398 0.0180481 5.50724
RightShoulder  0.756355 0.139568 13.8398
RightArm  -31.3114 -10.251 7.00911
RightForeArm  4.36281 5.86863 -0.16496
RightHand  -3.60597 13.9692 -21.85
LeftUpLeg  2.76283 6.00407 4.28729
LeftLeg  0.214217 17.8468 -4.54807
LeftFoot  0.444765 0.220678 -2.07154
LeftToes  1.06248e-005 4.65856e-005 -8.18499e-006
6
root  72.4126 40.4405 -3.2047 -148.148 -86.4891 145.656
RightUpLeg  2.68733 -9.59719 -8.1233
RightLeg  5.46503 -2.96566 3.20256
RightFoot  -3.8992 -0.0599805 0.518073
RightToes  0.000482159 0.542163 -0.142577
Spine  3.71011 0.0868279 1.04442
Spine1  5.90781 0.906735 -2.90635
HEad  -6.58002 -1.81541 1.59262
LeftShoulder1  1.98077 -4.90327 -16.8175
LeftArm  -22.171 13.0059 -6.50364
LeftForeArm  10.8263 -2.0653 0.561779
LeftHand  -0.25398 0.0180481 5.50724
RightShoulder  0.759918 0.166924 13.7765
RightArm  -31.0781 -10.5652 6.93436
RightForeArm  4.05399 6.00803 -0.0822176
RightHand  -3.57007 13.8186 -21.8042
LeftUpLeg  2.78091 6.00641 4.29656
LeftLeg  0.221481 17.8494 -4.54146
LeftFoot  0.42582 0.219945 -2.06015
LeftToes  1.06248e-005 4.65856e-005 -8.18499e-006
7
root  72.398 40.4405 -3.20788 -148.171 -86.5013 145.657
RightUpLeg  2.75763 -9.59611 -8.12758
RightLeg  5.43522 -2.97645 3.20195
RightFoot  -3.92121 -0.0692777 0.662377
RightToes  0.000482159 0.542163 -0.142577
Spine  3.82511 0.110679 1.04855
Spine1  5.86834 0.92834 -2.89097
HEad  -6.55922 -2.12708 1.40355
LeftShoulder1  1.87419 -4.54326 -16.52
LeftArm  -22.5244 12.5774 -7.00169
LeftForeArm  11.3436 -1.91497 0.669692
LeftHand  -0.25398 0.0180481 5.50724
RightShoulder  0.745476 0.11057 13.6913
RightArm  -30.8574 -10.7098 6.98057
RightForeArm  3.46127 6.23976 0.0566867
RightHand  -3.53984 13.5708 -21.8962
LeftUpLeg  2.80607 6.03125 4.31604
LeftLeg  0.264941 17.8657 -4.54025
LeftFoot  0.412415 0.216015 -1.99903
LeftToes  1.06248e-005 4.65856e-005 -8.18499e-006
